<svg viewBox="0 0 48 48" fill="none" xmlns="http://www.w3.org/2000/svg">
  <rect width="48" height="48" rx="12" fill="#2563EB"/>
  <path d="M14 18C14 16.8954 14.8954 16 16 16H32C33.1046 16 34 16.8954 34 18V30C34 31.1046 33.1046 32 32 32H16C14.8954 32 14 31.1046 14 30V18Z" fill="white"/>
  <circle cx="20" cy="22" r="2" fill="#2563EB"/>
  <circle cx="28" cy="22" r="2" fill="#2563EB"/>
  <path d="M20 27C20 27 22 29 24 29C26 29 28 27 28 27" stroke="#2563EB" stroke-width="2" stroke-linecap="round"/>
  <path d="M10 14L14 18" stroke="#FBBF24" stroke-width="2" stroke-linecap="round"/>
  <path d="M38 14L34 18" stroke="#FBBF24" stroke-width="2" stroke-linecap="round"/>
  <path d="M24 10V16" stroke="#FBBF24" stroke-width="2" stroke-linecap="round"/>
</svg>
